<svg xmlns="http://www.w3.org/2000/svg" width="1200" height="360" viewBox="0 0 1200 360"><defs><linearGradient id="g6" x1="0" y1="0" x2="1" y2="1"><stop offset="0" stop-color="#0f172a"/><stop offset="1" stop-color="#1f2937"/></linearGradient><linearGradient id="gl6" x1="0" y1="0" x2="1" y2="0"><stop offset="0" stop-color="#f472b6"/><stop offset="1" stop-color="#fb7185"/></linearGradient></defs><rect x="0" y="0" width="1200" height="360" fill="url(#g6)"/><g transform="translate(80,60)"><rect x="0" y="0" rx="24" ry="24" width="1040" height="240" fill="#0b1220" opacity="0.6"/><rect x="0" y="0" rx="24" ry="24" width="1040" height="240" fill="none" stroke="#374151"/><text x="520" y="52" fill="#e5e7eb" font-size="28" font-weight="600" text-anchor="middle">Lesson 6 • Collaborative Filtering</text><g transform="translate(240,120)"><rect x="-56" y="-56" width="112" height="112" rx="16" fill="#111827" stroke="#374151"/><circle cx="-16" cy="0" r="14" fill="none" stroke="url(#gl6)" stroke-width="6"/><circle cx="16" cy="0" r="14" fill="none" stroke="url(#gl6)" stroke-width="6"/><text x="90" y="6" fill="#e5e7eb" font-size="18" font-weight="500">Users</text></g><g transform="translate(760,120)"><rect x="-56" y="-56" width="112" height="112" rx="16" fill="#111827" stroke="#374151"/><path d="M -24 0 L 24 0" stroke="#fb7185" stroke-width="6"/><path d="M 0 -24 L 0 24" stroke="#f472b6" stroke-width="6"/><text x="90" y="6" fill="#e5e7eb" font-size="18" font-weight="500">Items</text></g></g></svg>
