<svg xmlns="http://www.w3.org/2000/svg" width="1200" height="360" viewBox="0 0 1200 360"><defs><linearGradient id="g7" x1="0" y1="0" x2="1" y2="1"><stop offset="0" stop-color="#0f172a"/><stop offset="1" stop-color="#111827"/></linearGradient><linearGradient id="gl7" x1="0" y1="0" x2="1" y2="0"><stop offset="0" stop-color="#f97316"/><stop offset="1" stop-color="#f43f5e"/></linearGradient></defs><rect x="0" y="0" width="1200" height="360" fill="url(#g7)"/><g transform="translate(80,60)"><rect x="0" y="0" rx="24" ry="24" width="1040" height="240" fill="#0b1220" opacity="0.6"/><rect x="0" y="0" rx="24" ry="24" width="1040" height="240" fill="none" stroke="#1f2937"/><text x="520" y="52" fill="#e5e7eb" font-size="28" font-weight="600" text-anchor="middle">Lesson 7 • Classical ML</text><g transform="translate(240,120)"><rect x="-56" y="-56" width="112" height="112" rx="16" fill="#111827" stroke="#374151"/><path d="M -40 12 L -20 24 L 0 8 L 20 20 L 40 -10" stroke="url(#gl7)" stroke-width="6" fill="none"/><text x="90" y="6" fill="#e5e7eb" font-size="18" font-weight="500">Baseline</text></g><g transform="translate(760,120)"><rect x="-56" y="-56" width="112" height="112" rx="16" fill="#111827" stroke="#374151"/><path d="M -36 24 L 36 24 M -36 8 L 36 8" stroke="#f97316" stroke-width="6"/><text x="90" y="6" fill="#e5e7eb" font-size="18" font-weight="500">Compare</text></g></g></svg>
