<svg xmlns="http://www.w3.org/2000/svg" width="1200" height="360" viewBox="0 0 1200 360"><defs><linearGradient id="g3" x1="0" y1="0" x2="1" y2="1"><stop offset="0" stop-color="#0f172a"/><stop offset="1" stop-color="#172554"/></linearGradient><linearGradient id="gl3" x1="0" y1="0" x2="1" y2="0"><stop offset="0" stop-color="#f59e0b"/><stop offset="1" stop-color="#ef4444"/></linearGradient></defs><rect x="0" y="0" width="1200" height="360" fill="url(#g3)"/><g transform="translate(80,60)"><rect x="0" y="0" rx="24" ry="24" width="1040" height="240" fill="#0b1220" opacity="0.6"/><rect x="0" y="0" rx="24" ry="24" width="1040" height="240" fill="none" stroke="#1f2937"/><text x="520" y="52" fill="#e5e7eb" font-size="28" font-weight="600" text-anchor="middle">Lesson 3 • Data & Augmentation</text><g transform="translate(240,120)"><rect x="-56" y="-56" width="112" height="112" rx="16" fill="#111827" stroke="#374151"/><path d="M -28 -28 L 28 28 M -28 28 L 28 -28" stroke="url(#gl3)" stroke-width="6"/><text x="90" y="6" fill="#e5e7eb" font-size="18" font-weight="500">Transforms</text></g><g transform="translate(760,120)"><rect x="-56" y="-56" width="112" height="112" rx="16" fill="#111827" stroke="#374151"/><path d="M -40 0 C -20 -30, 20 -30, 40 0 C 20 30, -20 30, -40 0 Z" stroke="#f59e0b" fill="none" stroke-width="6"/><text x="90" y="6" fill="#e5e7eb" font-size="18" font-weight="500">Augment</text></g></g></svg>
